<svg width="706.601" height="89" viewBox="0 0 706.601 89" xmlns="http://www.w3.org/2000/svg"><g id="svgGroup" stroke-linecap="round" fill-rule="evenodd" font-size="9pt" stroke="#ff0000" stroke-width="0.25mm" fill="#c394e0" style="stroke:#ff0000;stroke-width:0.25mm;fill:#c394e0"><path d="M 31.901 30.4 L 35.501 31.9 L 38.501 33.3 Q 43.842 35.674 46.982 37.607 A 34.619 34.619 0 0 1 47.051 37.65 A 16.66 16.66 0 0 1 51.653 41.923 A 19.857 19.857 0 0 1 52.401 43 A 12.96 12.96 0 0 1 54.084 47.011 Q 54.5 48.719 54.581 50.714 A 24.274 24.274 0 0 1 54.601 51.7 Q 54.601 57.4 50.851 61.55 A 19.973 19.973 0 0 1 45.867 65.491 Q 43.437 66.876 40.401 67.85 Q 33.701 70 24.801 70 Q 18.201 70 12.451 67.95 Q 7.7 66.256 4.587 63.846 A 18.477 18.477 0 0 1 3.351 62.8 A 14.959 14.959 0 0 1 1.731 61.064 Q 0.961 60.081 0.533 59.108 A 5.948 5.948 0 0 1 0.001 56.7 A 5.531 5.531 0 0 1 1.881 52.46 A 7.618 7.618 0 0 1 2.501 51.95 Q 4.343 50.587 7.325 49.848 A 25.312 25.312 0 0 1 9.601 49.4 A 7.423 7.423 0 0 0 11.101 52.712 Q 11.82 53.64 12.86 54.487 A 13.761 13.761 0 0 0 13.001 54.6 A 22.264 22.264 0 0 0 18.112 57.614 A 26.275 26.275 0 0 0 19.751 58.25 Q 22.698 59.284 25.089 59.526 A 14.011 14.011 0 0 0 26.501 59.6 A 22.873 22.873 0 0 0 31.807 59.007 A 18.755 18.755 0 0 0 35.951 57.5 Q 40.101 55.4 40.101 51.7 A 5.756 5.756 0 0 0 38.153 47.356 A 8.831 8.831 0 0 0 37.151 46.55 A 25.622 25.622 0 0 0 35.019 45.235 Q 32.357 43.75 28.301 42.1 L 23.001 39.7 Q 17.465 36.975 13.888 33.67 A 25.591 25.591 0 0 1 12.701 32.5 A 13.524 13.524 0 0 1 9.236 25.59 A 19.403 19.403 0 0 1 8.901 21.9 A 21.177 21.177 0 0 1 9.523 16.629 A 15.363 15.363 0 0 1 13.001 10.05 Q 17.101 5.5 22.951 3.5 A 37.183 37.183 0 0 1 30.521 1.736 A 32.294 32.294 0 0 1 34.401 1.5 A 56.743 56.743 0 0 1 40.391 1.797 Q 43.345 2.112 45.844 2.759 A 26.557 26.557 0 0 1 49.051 3.8 A 27.31 27.31 0 0 1 52.632 5.523 Q 55.694 7.303 57.401 9.6 A 14.256 14.256 0 0 1 59.155 12.645 A 10.786 10.786 0 0 1 60.001 16.8 A 10.711 10.711 0 0 1 59.853 18.502 Q 59.715 19.359 59.446 20.327 A 24.882 24.882 0 0 1 58.951 21.9 A 14.716 14.716 0 0 1 56.287 26.609 A 14.101 14.101 0 0 1 55.851 27.1 A 6.981 6.981 0 0 1 53.665 28.715 A 6.525 6.525 0 0 1 50.901 29.3 A 6.9 6.9 0 0 1 48.892 29.033 Q 46.683 28.36 46.106 25.992 A 8 8 0 0 1 45.901 24.1 A 33.624 33.624 0 0 1 46.032 23.172 Q 46.25 21.755 46.693 19.415 A 245.821 245.821 0 0 1 46.801 18.85 A 134.1 134.1 0 0 1 47.049 17.585 Q 47.539 15.155 47.784 14.542 A 1.703 1.703 0 0 1 47.801 14.5 A 2.578 2.578 0 0 0 47.166 13.488 Q 46.465 12.763 45.085 12.121 A 15.779 15.779 0 0 0 43.951 11.65 A 17.177 17.177 0 0 0 41.15 10.888 Q 39.702 10.614 38.001 10.494 A 39.812 39.812 0 0 0 35.201 10.4 Q 30.087 10.4 26.927 12.879 A 10.286 10.286 0 0 0 26.001 13.7 A 11.131 11.131 0 0 0 22.714 21.382 A 14.684 14.684 0 0 0 22.701 22 A 6.796 6.796 0 0 0 22.991 24.041 A 5.232 5.232 0 0 0 24.951 26.75 Q 27.201 28.4 31.901 30.4 Z M 271.301 59 L 282.501 14.2 A 46.536 46.536 0 0 0 279.653 15.26 Q 275.029 17.169 273.701 19.2 A 16.903 16.903 0 0 1 272.202 17.383 Q 270.644 15.174 270.602 13.209 A 5.086 5.086 0 0 1 270.601 13.1 Q 270.601 11.09 272.02 8.997 A 11.91 11.91 0 0 1 272.301 8.6 Q 275.627 6.438 282.41 4.483 A 98.86 98.86 0 0 1 285.301 3.7 A 9.171 9.171 0 0 1 285.841 2.521 Q 286.489 1.352 287.351 0.8 A 4.204 4.204 0 0 1 288.397 0.332 Q 289.489 0 291.101 0 A 19.606 19.606 0 0 1 293.87 0.189 A 16.83 16.83 0 0 1 295.051 0.4 A 9.433 9.433 0 0 1 296.008 0.657 Q 297.026 0.992 297.594 1.499 A 2.599 2.599 0 0 1 297.701 1.6 Q 302.501 1 307.401 1 A 40.942 40.942 0 0 1 312.711 1.32 Q 318.951 2.139 322.401 5.05 A 13.242 13.242 0 0 1 327.03 13.698 A 19.175 19.175 0 0 1 327.201 16.3 A 14.324 14.324 0 0 1 322.968 26.682 A 17.392 17.392 0 0 1 322.901 26.75 A 22.575 22.575 0 0 1 315.196 31.802 A 28.576 28.576 0 0 1 311.901 32.9 Q 318.601 34 320.851 37.55 A 14.426 14.426 0 0 1 322.942 43.438 A 18.559 18.559 0 0 1 323.101 45.9 A 16.466 16.466 0 0 1 323.094 46.369 Q 323.08 46.865 323.034 47.2 A 3.383 3.383 0 0 1 323.001 47.4 A 32.728 32.728 0 0 1 321.069 54.638 Q 318.381 61.287 312.801 64.75 A 34.03 34.03 0 0 1 299.646 69.446 A 44.326 44.326 0 0 1 293.201 69.9 A 29.585 29.585 0 0 1 289.796 69.694 A 37.819 37.819 0 0 1 286.951 69.25 A 24.798 24.798 0 0 1 284.614 68.685 Q 283.488 68.351 282.554 67.932 A 12.017 12.017 0 0 1 281.501 67.4 A 4.105 4.105 0 0 1 280.416 67.944 Q 279.267 68.343 277.439 68.456 A 25.11 25.11 0 0 1 275.901 68.5 A 5.261 5.261 0 0 1 274.404 68.3 A 3.683 3.683 0 0 1 272.101 66.35 Q 271.001 64.2 271.001 61.1 Q 271.001 60 271.301 59 Z M 84.901 31 L 78.601 56.2 Q 78.601 58.5 79.801 59.85 A 3.905 3.905 0 0 0 81.968 61.078 A 5.894 5.894 0 0 0 83.201 61.2 A 8.43 8.43 0 0 0 85.535 60.891 A 6.584 6.584 0 0 0 88.151 59.45 Q 89.567 58.179 91.116 56.142 A 42.421 42.421 0 0 0 92.301 54.5 Q 93.596 52.638 94.498 51.628 A 10.477 10.477 0 0 1 94.901 51.2 A 3.56 3.56 0 0 1 95.851 50.508 A 3.03 3.03 0 0 1 97.201 50.2 Q 99.241 50.2 100.357 50.6 A 3.169 3.169 0 0 1 100.901 50.85 Q 102.001 51.5 102.001 53.5 Q 102.001 54.189 101.883 55.083 A 20.26 20.26 0 0 1 101.801 55.65 A 12.812 12.812 0 0 1 101.68 56.302 Q 101.516 57.069 101.301 57.5 A 20.37 20.37 0 0 1 96.699 63.721 A 26.72 26.72 0 0 1 93.451 66.3 Q 88.001 70 81.101 70 A 22.654 22.654 0 0 1 77.166 69.681 Q 75.033 69.304 73.351 68.482 A 10.426 10.426 0 0 1 70.701 66.65 A 10.847 10.847 0 0 1 67.735 61.509 Q 67.267 59.77 67.209 57.699 A 21.242 21.242 0 0 1 67.201 57.1 A 4.182 4.182 0 0 1 67.238 56.615 Q 67.372 55.522 67.991 52.868 A 136.488 136.488 0 0 1 68.101 52.4 Q 69.001 48.6 70.401 43.3 L 73.201 31.9 L 67.101 32.4 A 2.528 2.528 0 0 1 66.347 32.294 A 1.912 1.912 0 0 1 65.301 31.5 A 3.504 3.504 0 0 1 64.778 30.184 A 4.811 4.811 0 0 1 64.701 29.3 Q 64.701 26.8 66.501 24.3 Q 66.689 24.017 68.299 23.734 A 23.479 23.479 0 0 1 68.501 23.7 Q 70.301 23.4 72.901 23.1 L 75.601 22.8 L 79.001 8.2 A 9.409 9.409 0 0 1 80.335 5.793 A 8.024 8.024 0 0 1 82.051 4.15 A 9.831 9.831 0 0 1 83.415 3.332 Q 84.185 2.957 84.917 2.804 A 4.815 4.815 0 0 1 85.901 2.7 A 5.535 5.535 0 0 1 87.724 2.991 A 4.839 4.839 0 0 1 89.301 3.9 A 4.792 4.792 0 0 1 90.196 4.899 A 3.639 3.639 0 0 1 90.801 6.7 L 87.201 21.7 Q 91.101 21.2 94.451 20.85 Q 97.212 20.562 98.988 20.511 A 25.049 25.049 0 0 1 99.701 20.5 Q 103.501 20.5 103.501 24.9 A 3.829 3.829 0 0 1 102.651 27.298 A 5.487 5.487 0 0 1 102.051 27.95 A 7.02 7.02 0 0 1 100.6 29.005 A 5.627 5.627 0 0 1 98.901 29.6 L 84.901 31 Z M 219.801 31 L 213.501 56.2 Q 213.501 58.5 214.701 59.85 A 3.905 3.905 0 0 0 216.868 61.078 A 5.894 5.894 0 0 0 218.101 61.2 A 8.43 8.43 0 0 0 220.435 60.891 A 6.584 6.584 0 0 0 223.051 59.45 Q 224.467 58.179 226.016 56.142 A 42.421 42.421 0 0 0 227.201 54.5 Q 228.496 52.638 229.398 51.628 A 10.477 10.477 0 0 1 229.801 51.2 A 3.56 3.56 0 0 1 230.751 50.508 A 3.03 3.03 0 0 1 232.101 50.2 Q 234.141 50.2 235.257 50.6 A 3.169 3.169 0 0 1 235.801 50.85 Q 236.901 51.5 236.901 53.5 Q 236.901 54.189 236.783 55.083 A 20.26 20.26 0 0 1 236.701 55.65 A 12.812 12.812 0 0 1 236.58 56.302 Q 236.416 57.069 236.201 57.5 A 20.37 20.37 0 0 1 231.599 63.721 A 26.72 26.72 0 0 1 228.351 66.3 Q 222.901 70 216.001 70 A 22.654 22.654 0 0 1 212.066 69.681 Q 209.933 69.304 208.251 68.482 A 10.426 10.426 0 0 1 205.601 66.65 A 10.847 10.847 0 0 1 202.635 61.509 Q 202.167 59.77 202.109 57.699 A 21.242 21.242 0 0 1 202.101 57.1 A 4.182 4.182 0 0 1 202.138 56.615 Q 202.272 55.522 202.891 52.868 A 136.488 136.488 0 0 1 203.001 52.4 Q 203.901 48.6 205.301 43.3 L 208.101 31.9 L 202.001 32.4 A 2.528 2.528 0 0 1 201.247 32.294 A 1.912 1.912 0 0 1 200.201 31.5 A 3.504 3.504 0 0 1 199.678 30.184 A 4.811 4.811 0 0 1 199.601 29.3 Q 199.601 26.8 201.401 24.3 Q 201.589 24.017 203.199 23.734 A 23.479 23.479 0 0 1 203.401 23.7 Q 205.201 23.4 207.801 23.1 L 210.501 22.8 L 213.901 8.2 A 9.409 9.409 0 0 1 215.235 5.793 A 8.024 8.024 0 0 1 216.951 4.15 A 9.831 9.831 0 0 1 218.315 3.332 Q 219.085 2.957 219.817 2.804 A 4.815 4.815 0 0 1 220.801 2.7 A 5.535 5.535 0 0 1 222.624 2.991 A 4.839 4.839 0 0 1 224.201 3.9 A 4.792 4.792 0 0 1 225.096 4.899 A 3.639 3.639 0 0 1 225.701 6.7 L 222.101 21.7 Q 226.001 21.2 229.351 20.85 Q 232.112 20.562 233.888 20.511 A 25.049 25.049 0 0 1 234.601 20.5 Q 238.401 20.5 238.401 24.9 A 3.829 3.829 0 0 1 237.551 27.298 A 5.487 5.487 0 0 1 236.951 27.95 A 7.02 7.02 0 0 1 235.5 29.005 A 5.627 5.627 0 0 1 233.801 29.6 L 219.801 31 Z M 454.201 31 L 447.901 56.2 Q 447.901 58.5 449.101 59.85 A 3.905 3.905 0 0 0 451.268 61.078 A 5.894 5.894 0 0 0 452.501 61.2 A 8.43 8.43 0 0 0 454.835 60.891 A 6.584 6.584 0 0 0 457.451 59.45 Q 458.867 58.179 460.416 56.142 A 42.421 42.421 0 0 0 461.601 54.5 Q 462.896 52.638 463.798 51.628 A 10.477 10.477 0 0 1 464.201 51.2 A 3.56 3.56 0 0 1 465.151 50.508 A 3.03 3.03 0 0 1 466.501 50.2 Q 468.541 50.2 469.657 50.6 A 3.169 3.169 0 0 1 470.201 50.85 Q 471.301 51.5 471.301 53.5 Q 471.301 54.189 471.183 55.083 A 20.26 20.26 0 0 1 471.101 55.65 A 12.812 12.812 0 0 1 470.98 56.302 Q 470.816 57.069 470.601 57.5 A 20.37 20.37 0 0 1 465.999 63.721 A 26.72 26.72 0 0 1 462.751 66.3 Q 457.301 70 450.401 70 A 22.654 22.654 0 0 1 446.466 69.681 Q 444.333 69.304 442.651 68.482 A 10.426 10.426 0 0 1 440.001 66.65 A 10.847 10.847 0 0 1 437.035 61.509 Q 436.567 59.77 436.509 57.699 A 21.242 21.242 0 0 1 436.501 57.1 A 4.182 4.182 0 0 1 436.538 56.615 Q 436.672 55.522 437.291 52.868 A 136.488 136.488 0 0 1 437.401 52.4 Q 438.301 48.6 439.701 43.3 L 442.501 31.9 L 436.401 32.4 A 2.528 2.528 0 0 1 435.647 32.294 A 1.912 1.912 0 0 1 434.601 31.5 A 3.504 3.504 0 0 1 434.078 30.184 A 4.811 4.811 0 0 1 434.001 29.3 Q 434.001 26.8 435.801 24.3 Q 435.989 24.017 437.599 23.734 A 23.479 23.479 0 0 1 437.801 23.7 Q 439.601 23.4 442.201 23.1 L 444.901 22.8 L 448.301 8.2 A 9.409 9.409 0 0 1 449.635 5.793 A 8.024 8.024 0 0 1 451.351 4.15 A 9.831 9.831 0 0 1 452.715 3.332 Q 453.485 2.957 454.217 2.804 A 4.815 4.815 0 0 1 455.201 2.7 A 5.535 5.535 0 0 1 457.024 2.991 A 4.839 4.839 0 0 1 458.601 3.9 A 4.792 4.792 0 0 1 459.496 4.899 A 3.639 3.639 0 0 1 460.101 6.7 L 456.501 21.7 Q 460.401 21.2 463.751 20.85 Q 466.512 20.562 468.288 20.511 A 25.049 25.049 0 0 1 469.001 20.5 Q 472.801 20.5 472.801 24.9 A 3.829 3.829 0 0 1 471.951 27.298 A 5.487 5.487 0 0 1 471.351 27.95 A 7.02 7.02 0 0 1 469.9 29.005 A 5.627 5.627 0 0 1 468.201 29.6 L 454.201 31 Z M 543.901 31 L 537.601 56.2 Q 537.601 58.5 538.801 59.85 A 3.905 3.905 0 0 0 540.968 61.078 A 5.894 5.894 0 0 0 542.201 61.2 A 8.43 8.43 0 0 0 544.535 60.891 A 6.584 6.584 0 0 0 547.151 59.45 Q 548.567 58.179 550.116 56.142 A 42.421 42.421 0 0 0 551.301 54.5 Q 552.596 52.638 553.498 51.628 A 10.477 10.477 0 0 1 553.901 51.2 A 3.56 3.56 0 0 1 554.851 50.508 A 3.03 3.03 0 0 1 556.201 50.2 Q 558.241 50.2 559.357 50.6 A 3.169 3.169 0 0 1 559.901 50.85 Q 561.001 51.5 561.001 53.5 Q 561.001 54.189 560.883 55.083 A 20.26 20.26 0 0 1 560.801 55.65 A 12.812 12.812 0 0 1 560.68 56.302 Q 560.516 57.069 560.301 57.5 A 20.37 20.37 0 0 1 555.699 63.721 A 26.72 26.72 0 0 1 552.451 66.3 Q 547.001 70 540.101 70 A 22.654 22.654 0 0 1 536.166 69.681 Q 534.033 69.304 532.351 68.482 A 10.426 10.426 0 0 1 529.701 66.65 A 10.847 10.847 0 0 1 526.735 61.509 Q 526.267 59.77 526.209 57.699 A 21.242 21.242 0 0 1 526.201 57.1 A 4.182 4.182 0 0 1 526.238 56.615 Q 526.372 55.522 526.991 52.868 A 136.488 136.488 0 0 1 527.101 52.4 Q 528.001 48.6 529.401 43.3 L 532.201 31.9 L 526.101 32.4 A 2.528 2.528 0 0 1 525.347 32.294 A 1.912 1.912 0 0 1 524.301 31.5 A 3.504 3.504 0 0 1 523.778 30.184 A 4.811 4.811 0 0 1 523.701 29.3 Q 523.701 26.8 525.501 24.3 Q 525.689 24.017 527.299 23.734 A 23.479 23.479 0 0 1 527.501 23.7 Q 529.301 23.4 531.901 23.1 L 534.601 22.8 L 538.001 8.2 A 9.409 9.409 0 0 1 539.335 5.793 A 8.024 8.024 0 0 1 541.051 4.15 A 9.831 9.831 0 0 1 542.415 3.332 Q 543.185 2.957 543.917 2.804 A 4.815 4.815 0 0 1 544.901 2.7 A 5.535 5.535 0 0 1 546.724 2.991 A 4.839 4.839 0 0 1 548.301 3.9 A 4.792 4.792 0 0 1 549.196 4.899 A 3.639 3.639 0 0 1 549.801 6.7 L 546.201 21.7 Q 550.101 21.2 553.451 20.85 Q 556.212 20.562 557.988 20.511 A 25.049 25.049 0 0 1 558.701 20.5 Q 562.501 20.5 562.501 24.9 A 3.829 3.829 0 0 1 561.651 27.298 A 5.487 5.487 0 0 1 561.051 27.95 A 7.02 7.02 0 0 1 559.6 29.005 A 5.627 5.627 0 0 1 557.901 29.6 L 543.901 31 Z M 509.901 28.5 A 5.286 5.286 0 0 0 508.644 28.069 Q 508.055 27.943 507.372 27.911 A 10.101 10.101 0 0 0 506.901 27.9 Q 502.401 27.9 497.901 29.7 A 13.877 13.877 0 0 0 496.147 30.535 Q 494.168 31.672 493.615 33.125 A 3.276 3.276 0 0 0 493.401 34.3 A 3.564 3.564 0 0 0 494.658 37.085 A 5.013 5.013 0 0 0 495.201 37.5 A 14.56 14.56 0 0 0 496.379 38.199 Q 497.695 38.906 499.646 39.703 A 64.838 64.838 0 0 0 500.901 40.2 A 81.682 81.682 0 0 1 503.713 41.396 Q 506.035 42.439 507.701 43.4 A 13.147 13.147 0 0 1 510.964 46.096 A 16.663 16.663 0 0 1 512.251 47.75 A 10.69 10.69 0 0 1 513.814 51.389 Q 514.152 52.834 514.195 54.515 A 19.283 19.283 0 0 1 514.201 55 A 13.825 13.825 0 0 1 513.293 60.114 Q 511.998 63.395 508.858 65.638 A 16.053 16.053 0 0 1 508.251 66.05 A 21.857 21.857 0 0 1 502.088 68.732 Q 499.279 69.499 495.942 69.762 A 46.3 46.3 0 0 1 492.301 69.9 Q 487.401 69.9 483.201 68.4 A 23.843 23.843 0 0 1 480.104 67.055 Q 478.537 66.23 477.322 65.233 A 13.237 13.237 0 0 1 476.551 64.55 Q 474.952 63.017 474.312 61.505 A 5.271 5.271 0 0 1 473.901 59.9 Q 473.901 57.5 476.001 55.95 Q 478.101 54.4 481.901 53.9 A 4.454 4.454 0 0 0 482.614 56.071 Q 482.998 56.681 483.586 57.264 A 9.08 9.08 0 0 0 484.001 57.65 A 14.993 14.993 0 0 0 487.503 59.919 A 17.854 17.854 0 0 0 488.751 60.45 A 20.048 20.048 0 0 0 490.553 61.048 Q 492.188 61.5 493.501 61.5 Q 496.901 61.5 499.701 59.65 Q 501.51 58.455 502.15 56.988 A 4.175 4.175 0 0 0 502.501 55.3 A 4.93 4.93 0 0 0 500.946 51.787 Q 498.781 49.572 493.601 48 A 21.845 21.845 0 0 1 489.425 46.299 Q 486.754 44.851 484.965 42.737 A 13.875 13.875 0 0 1 484.851 42.6 A 14.499 14.499 0 0 1 482.834 39.437 A 11.001 11.001 0 0 1 481.801 34.8 Q 481.801 26.7 489.151 23.15 A 32.479 32.479 0 0 1 496.321 20.731 Q 499.778 19.971 503.817 19.722 A 66.312 66.312 0 0 1 507.901 19.6 A 44.124 44.124 0 0 1 511.531 19.739 Q 515.105 20.035 517.461 20.961 A 11.96 11.96 0 0 1 517.801 21.1 Q 521 22.471 521.275 25.68 A 7.26 7.26 0 0 1 521.301 26.3 A 6.086 6.086 0 0 1 519.568 30.577 A 7.94 7.94 0 0 1 519.451 30.7 Q 517.691 32.507 514.529 32.596 A 11.77 11.77 0 0 1 514.201 32.6 A 31.273 31.273 0 0 1 512.991 32.579 Q 511.015 32.502 510.351 32.15 A 1.716 1.716 0 0 1 509.459 30.967 A 2.648 2.648 0 0 1 509.401 30.6 A 4.504 4.504 0 0 1 509.568 29.41 A 6.07 6.07 0 0 1 509.901 28.5 Z M 652.201 83.4 L 659.201 54.7 Q 661.951 43.906 664.039 35.287 A 1001.125 1001.125 0 0 0 665.801 27.9 Q 665.801 27.304 665.11 24.734 A 95.094 95.094 0 0 0 665.101 24.7 Q 664.801 23.1 664.501 21.7 A 68.82 68.82 0 0 1 664.363 21.044 Q 664.176 20.128 664.101 19.603 A 6.637 6.637 0 0 1 664.101 19.6 Q 664.301 18.3 666.151 17.5 A 10.749 10.749 0 0 1 667.715 16.955 Q 668.698 16.7 669.601 16.7 A 7.251 7.251 0 0 1 672.655 17.398 A 10.104 10.104 0 0 1 674.351 18.4 A 7.649 7.649 0 0 1 675.775 19.712 A 5.345 5.345 0 0 1 677.001 22.5 L 676.701 25.1 A 15.267 15.267 0 0 1 681.248 21.199 A 14.215 14.215 0 0 1 688.201 19.5 A 19.836 19.836 0 0 1 693.281 20.125 A 15.937 15.937 0 0 1 698.051 22.25 Q 702.201 25 704.401 29.65 A 23.143 23.143 0 0 1 706.547 38.173 A 27.436 27.436 0 0 1 706.601 39.9 Q 706.601 47.4 703.701 54 Q 700.801 60.6 695.001 64.65 A 22.299 22.299 0 0 1 685.438 68.377 A 29.522 29.522 0 0 1 681.001 68.7 A 10.287 10.287 0 0 1 679.133 68.512 Q 677.347 68.18 675.062 67.265 A 36.44 36.44 0 0 1 674.301 66.95 A 18.73 18.73 0 0 1 672.216 65.914 Q 669.962 64.599 669.005 62.984 A 5.466 5.466 0 0 1 668.901 62.8 A 7.131 7.131 0 0 1 668.837 63.102 Q 668.533 64.464 666.856 71.292 A 4065.52 4065.52 0 0 1 666.251 73.75 Q 663.778 83.786 662.763 86.629 A 15.524 15.524 0 0 1 662.701 86.8 A 1.88 1.88 0 0 1 662.128 87.589 Q 661.589 88.047 660.619 88.356 A 8.29 8.29 0 0 1 660.301 88.45 Q 658.301 89 657.401 89 A 5.675 5.675 0 0 1 655.575 88.718 A 4.819 4.819 0 0 1 653.751 87.6 A 4.626 4.626 0 0 1 652.62 85.801 Q 652.365 85.09 652.263 84.222 A 10.052 10.052 0 0 1 652.201 83.4 Z M 156.701 65.2 L 161.501 46.1 A 2294.417 2294.417 0 0 1 162.906 40.334 Q 165.638 29.189 166.719 25.384 A 66.931 66.931 0 0 1 166.801 25.1 L 164.301 22.1 A 1.045 1.045 0 0 1 164.083 21.791 A 0.94 0.94 0 0 1 164.001 21.4 A 1 1 0 0 1 164.304 20.706 Q 164.814 20.162 166.187 19.754 A 10.848 10.848 0 0 1 166.201 19.75 Q 168.302 19.129 171.956 19.101 A 45.445 45.445 0 0 1 172.301 19.1 Q 174.201 19.1 175.423 19.675 A 3.592 3.592 0 0 1 177.001 21.05 A 9.117 9.117 0 0 1 177.903 23.053 Q 178.201 23.982 178.372 25.074 A 17.664 17.664 0 0 1 178.501 26.1 L 177.801 28.7 Q 181.001 24.8 185.251 22.25 Q 189.501 19.7 192.801 19.7 A 19.989 19.989 0 0 1 195.303 19.847 Q 196.577 20.008 197.626 20.346 A 8.364 8.364 0 0 1 199.501 21.2 Q 201.901 22.7 201.901 25.1 A 6.828 6.828 0 0 1 201.467 27.442 Q 201.108 28.431 200.451 29.45 Q 199.001 31.7 196.801 33.25 Q 194.601 34.8 192.501 35 Q 191.06 35 190.294 34.741 A 1.89 1.89 0 0 1 189.801 34.5 A 1.624 1.624 0 0 1 189.127 33.372 A 2.48 2.48 0 0 1 189.101 33 L 189.701 29.7 A 23.802 23.802 0 0 0 181.175 34.137 Q 178.044 36.625 175.201 40.3 L 169.401 63.4 A 22.69 22.69 0 0 1 169.345 63.718 Q 169.252 64.227 169.07 65.148 A 269.153 269.153 0 0 1 168.951 65.75 A 4.288 4.288 0 0 1 168.592 66.829 A 3.025 3.025 0 0 1 167.251 68.2 Q 166.108 68.792 163.857 68.883 A 21.188 21.188 0 0 1 163.001 68.9 A 24.834 24.834 0 0 1 161.375 68.851 Q 159.793 68.746 158.777 68.422 A 4.845 4.845 0 0 1 158.201 68.2 A 2.402 2.402 0 0 1 156.912 66.7 Q 156.76 66.242 156.717 65.667 A 6.317 6.317 0 0 1 156.701 65.2 Z M 565.501 65.2 L 570.301 46.1 A 2294.417 2294.417 0 0 1 571.706 40.334 Q 574.438 29.189 575.519 25.384 A 66.931 66.931 0 0 1 575.601 25.1 L 573.101 22.1 A 1.045 1.045 0 0 1 572.883 21.791 A 0.94 0.94 0 0 1 572.801 21.4 A 1 1 0 0 1 573.104 20.706 Q 573.614 20.162 574.987 19.754 A 10.848 10.848 0 0 1 575.001 19.75 Q 577.102 19.129 580.756 19.101 A 45.445 45.445 0 0 1 581.101 19.1 Q 583.001 19.1 584.223 19.675 A 3.592 3.592 0 0 1 585.801 21.05 A 9.117 9.117 0 0 1 586.703 23.053 Q 587.001 23.982 587.172 25.074 A 17.664 17.664 0 0 1 587.301 26.1 L 586.601 28.7 Q 589.801 24.8 594.051 22.25 Q 598.301 19.7 601.601 19.7 A 19.989 19.989 0 0 1 604.103 19.847 Q 605.377 20.008 606.426 20.346 A 8.364 8.364 0 0 1 608.301 21.2 Q 610.701 22.7 610.701 25.1 A 6.828 6.828 0 0 1 610.267 27.442 Q 609.908 28.431 609.251 29.45 Q 607.801 31.7 605.601 33.25 Q 603.401 34.8 601.301 35 Q 599.86 35 599.094 34.741 A 1.89 1.89 0 0 1 598.601 34.5 A 1.624 1.624 0 0 1 597.927 33.372 A 2.48 2.48 0 0 1 597.901 33 L 598.501 29.7 A 23.802 23.802 0 0 0 589.975 34.137 Q 586.844 36.625 584.001 40.3 L 578.201 63.4 A 22.69 22.69 0 0 1 578.145 63.718 Q 578.052 64.227 577.87 65.148 A 269.153 269.153 0 0 1 577.751 65.75 A 4.288 4.288 0 0 1 577.392 66.829 A 3.025 3.025 0 0 1 576.051 68.2 Q 574.908 68.792 572.657 68.883 A 21.188 21.188 0 0 1 571.801 68.9 A 24.834 24.834 0 0 1 570.175 68.851 Q 568.593 68.746 567.577 68.422 A 4.845 4.845 0 0 1 567.001 68.2 A 2.402 2.402 0 0 1 565.712 66.7 Q 565.56 66.242 565.517 65.667 A 6.317 6.317 0 0 1 565.501 65.2 Z M 153.101 32.9 L 145.801 62 Q 146.001 64.6 146.501 66.7 A 0.91 0.91 0 0 1 146.282 67.037 Q 145.906 67.427 144.96 67.817 A 10.465 10.465 0 0 1 144.751 67.9 A 11.373 11.373 0 0 1 143.74 68.241 Q 143.253 68.379 142.821 68.443 A 4.891 4.891 0 0 1 142.101 68.5 A 19.528 19.528 0 0 1 140.333 68.426 Q 138.089 68.221 136.951 67.45 A 3.405 3.405 0 0 1 135.442 64.961 A 5.052 5.052 0 0 1 135.401 64.3 Q 135.401 62.3 135.801 60.3 Q 133.601 63.3 129.351 65.25 A 32.515 32.515 0 0 1 127.091 66.193 Q 124.369 67.2 122.501 67.2 A 18.944 18.944 0 0 1 117.114 66.467 A 15.151 15.151 0 0 1 111.351 63.3 A 11.879 11.879 0 0 1 108.031 58.274 Q 107.324 56.311 107.06 53.882 A 28.468 28.468 0 0 1 106.901 50.8 Q 106.901 42.7 110.751 35.55 Q 114.601 28.4 121.401 24.05 Q 128.201 19.7 136.501 19.7 A 8.139 8.139 0 0 1 137.658 19.792 Q 138.782 19.954 140.245 20.405 A 28.346 28.346 0 0 1 140.701 20.55 A 15.275 15.275 0 0 1 143.477 21.792 A 20.838 20.838 0 0 1 145.951 23.45 A 16.71 16.71 0 0 1 149.696 27.541 A 19.79 19.79 0 0 1 150.401 28.7 A 2.037 2.037 0 0 1 151.014 28.803 Q 151.596 28.988 152.301 29.5 Q 153.401 30.3 153.401 31.1 A 5.66 5.66 0 0 1 153.103 32.893 A 6.028 6.028 0 0 1 153.101 32.9 Z M 653.101 32.9 L 645.801 62 Q 646.001 64.6 646.501 66.7 A 0.91 0.91 0 0 1 646.282 67.037 Q 645.906 67.427 644.96 67.817 A 10.465 10.465 0 0 1 644.751 67.9 A 11.373 11.373 0 0 1 643.74 68.241 Q 643.253 68.379 642.821 68.443 A 4.891 4.891 0 0 1 642.101 68.5 A 19.528 19.528 0 0 1 640.333 68.426 Q 638.089 68.221 636.951 67.45 A 3.405 3.405 0 0 1 635.442 64.961 A 5.052 5.052 0 0 1 635.401 64.3 Q 635.401 62.3 635.801 60.3 Q 633.601 63.3 629.351 65.25 A 32.515 32.515 0 0 1 627.091 66.193 Q 624.369 67.2 622.501 67.2 A 18.944 18.944 0 0 1 617.114 66.467 A 15.151 15.151 0 0 1 611.351 63.3 A 11.879 11.879 0 0 1 608.031 58.274 Q 607.324 56.311 607.06 53.882 A 28.468 28.468 0 0 1 606.901 50.8 Q 606.901 42.7 610.751 35.55 Q 614.601 28.4 621.401 24.05 Q 628.201 19.7 636.501 19.7 A 8.139 8.139 0 0 1 637.658 19.792 Q 638.782 19.954 640.245 20.405 A 28.346 28.346 0 0 1 640.701 20.55 A 15.275 15.275 0 0 1 643.477 21.792 A 20.838 20.838 0 0 1 645.951 23.45 A 16.71 16.71 0 0 1 649.696 27.541 A 19.79 19.79 0 0 1 650.401 28.7 A 2.037 2.037 0 0 1 651.014 28.803 Q 651.596 28.988 652.301 29.5 Q 653.401 30.3 653.401 31.1 A 5.66 5.66 0 0 1 653.103 32.893 A 6.028 6.028 0 0 1 653.101 32.9 Z M 344.864 68.491 A 20.656 20.656 0 0 0 350.801 69.3 A 19.958 19.958 0 0 0 358.263 67.85 A 24.973 24.973 0 0 0 364.151 64.45 Q 370.501 59.6 374.301 52.2 A 37.678 37.678 0 0 0 376.761 46.27 A 27.891 27.891 0 0 0 378.101 37.9 A 34.774 34.774 0 0 0 377.987 35.042 Q 377.738 32.018 376.939 29.521 A 16.058 16.058 0 0 0 373.151 23.05 A 16.237 16.237 0 0 0 366.712 18.967 A 19.182 19.182 0 0 0 360.501 18 Q 352.701 18 346.201 22.2 Q 339.701 26.4 335.951 33.3 Q 332.201 40.2 332.201 48 A 29.911 29.911 0 0 0 332.728 53.748 A 21.292 21.292 0 0 0 337.101 63.3 A 15.577 15.577 0 0 0 344.864 68.491 Z M 395.664 68.491 A 20.656 20.656 0 0 0 401.601 69.3 A 19.958 19.958 0 0 0 409.063 67.85 A 24.973 24.973 0 0 0 414.951 64.45 Q 421.301 59.6 425.101 52.2 A 37.678 37.678 0 0 0 427.561 46.27 A 27.891 27.891 0 0 0 428.901 37.9 A 34.774 34.774 0 0 0 428.787 35.042 Q 428.538 32.018 427.739 29.521 A 16.058 16.058 0 0 0 423.951 23.05 A 16.237 16.237 0 0 0 417.512 18.967 A 19.182 19.182 0 0 0 411.301 18 Q 403.501 18 397.001 22.2 Q 390.501 26.4 386.751 33.3 Q 383.001 40.2 383.001 48 A 29.911 29.911 0 0 0 383.528 53.748 A 21.292 21.292 0 0 0 387.901 63.3 A 15.577 15.577 0 0 0 395.664 68.491 Z M 352.301 61.3 Q 355.501 61.3 358.751 57.3 A 27.881 27.881 0 0 0 361.796 52.617 Q 363.083 50.155 364.101 47.2 A 38.678 38.678 0 0 0 365.929 39.508 A 33.177 33.177 0 0 0 366.201 35.3 Q 366.201 27.406 360.379 26.514 A 10.423 10.423 0 0 0 358.801 26.4 Q 354.791 26.4 351.45 30.131 A 17.054 17.054 0 0 0 351.301 30.3 A 26.419 26.419 0 0 0 347.617 35.858 A 34.196 34.196 0 0 0 345.901 39.95 A 38.657 38.657 0 0 0 344.465 45.176 A 28.601 28.601 0 0 0 343.901 50.7 Q 343.901 53.6 345.201 56.05 A 12.295 12.295 0 0 0 346.714 58.297 A 9.849 9.849 0 0 0 348.451 59.9 A 8.538 8.538 0 0 0 349.936 60.767 Q 350.942 61.217 351.934 61.287 A 5.188 5.188 0 0 0 352.301 61.3 Z M 403.101 61.3 Q 406.301 61.3 409.551 57.3 A 27.881 27.881 0 0 0 412.596 52.617 Q 413.883 50.155 414.901 47.2 A 38.678 38.678 0 0 0 416.729 39.508 A 33.177 33.177 0 0 0 417.001 35.3 Q 417.001 27.406 411.179 26.514 A 10.423 10.423 0 0 0 409.601 26.4 Q 405.591 26.4 402.25 30.131 A 17.054 17.054 0 0 0 402.101 30.3 A 26.419 26.419 0 0 0 398.417 35.858 A 34.196 34.196 0 0 0 396.701 39.95 A 38.657 38.657 0 0 0 395.265 45.176 A 28.601 28.601 0 0 0 394.701 50.7 Q 394.701 53.6 396.001 56.05 A 12.295 12.295 0 0 0 397.514 58.297 A 9.849 9.849 0 0 0 399.251 59.9 A 8.538 8.538 0 0 0 400.736 60.767 Q 401.742 61.217 402.734 61.287 A 5.188 5.188 0 0 0 403.101 61.3 Z M 675.601 35.1 L 672.001 50.1 Q 671.801 51.3 671.801 51.8 Q 671.901 54.3 673.451 56.2 Q 675.001 58.1 677.101 59.15 A 14.225 14.225 0 0 0 678.286 59.681 Q 679.511 60.159 680.443 60.197 A 3.894 3.894 0 0 0 680.601 60.2 A 10.504 10.504 0 0 0 687.874 57.305 A 13.925 13.925 0 0 0 688.351 56.85 Q 691.701 53.5 693.501 48.55 Q 695.301 43.6 695.301 39.1 Q 695.301 34.9 693.051 31.65 A 8.836 8.836 0 0 0 691.45 29.867 A 6.155 6.155 0 0 0 687.401 28.4 A 14.412 14.412 0 0 0 684.74 28.632 Q 683.14 28.933 681.859 29.623 A 8.372 8.372 0 0 0 681.151 30.05 Q 678.701 31.7 675.601 35.1 Z M 137.901 47.9 L 141.301 34 Q 140.701 31.8 138.951 30.3 Q 137.275 28.863 135.919 28.803 A 2.657 2.657 0 0 0 135.801 28.8 A 13.01 13.01 0 0 0 128.819 30.864 A 17.121 17.121 0 0 0 127.151 32.05 Q 123.101 35.3 120.601 40.1 Q 118.101 44.9 118.101 49.2 Q 118.101 52.194 118.609 54.426 A 13.363 13.363 0 0 0 119.101 56.1 A 4.636 4.636 0 0 0 119.905 57.517 Q 121.001 58.8 123.001 58.8 Q 124.944 58.8 127.341 57.894 A 21.626 21.626 0 0 0 128.751 57.3 Q 132.001 55.8 134.551 53.25 A 15.375 15.375 0 0 0 136.391 51.054 Q 137.405 49.567 137.871 48.001 A 9.706 9.706 0 0 0 137.901 47.9 Z M 637.901 47.9 L 641.301 34 Q 640.701 31.8 638.951 30.3 Q 637.275 28.863 635.919 28.803 A 2.657 2.657 0 0 0 635.801 28.8 A 13.01 13.01 0 0 0 628.819 30.864 A 17.121 17.121 0 0 0 627.151 32.05 Q 623.101 35.3 620.601 40.1 Q 618.101 44.9 618.101 49.2 Q 618.101 52.194 618.609 54.426 A 13.363 13.363 0 0 0 619.101 56.1 A 4.636 4.636 0 0 0 619.905 57.517 Q 621.001 58.8 623.001 58.8 Q 624.944 58.8 627.341 57.894 A 21.626 21.626 0 0 0 628.751 57.3 Q 632.001 55.8 634.551 53.25 A 15.375 15.375 0 0 0 636.391 51.054 Q 637.405 49.567 637.871 48.001 A 9.706 9.706 0 0 0 637.901 47.9 Z M 291.901 60.2 Q 296.401 60.2 300.651 58.55 A 19.115 19.115 0 0 0 304.941 56.251 A 16.185 16.185 0 0 0 307.601 53.85 Q 310.301 50.8 310.301 46.7 Q 310.301 43.3 307.951 40.85 A 7.695 7.695 0 0 0 304.07 38.69 A 11.597 11.597 0 0 0 301.401 38.4 Q 293.501 38.4 290.001 39 A 179.641 179.641 0 0 0 289.135 42.037 Q 287.533 47.822 284.701 59 A 18.655 18.655 0 0 0 289.013 60.031 A 23.914 23.914 0 0 0 291.901 60.2 Z M 296.001 11.4 L 291.601 30.3 A 66.564 66.564 0 0 0 299.043 29.302 Q 306.667 27.791 310.271 24.592 A 9.108 9.108 0 0 0 313.501 17.5 A 8.125 8.125 0 0 0 313.258 15.457 A 5.658 5.658 0 0 0 311.601 12.65 A 5.396 5.396 0 0 0 309.886 11.618 Q 308.048 10.9 305.101 10.9 Q 301.001 10.9 296.001 11.4 Z" vector-effect="non-scaling-stroke"/></g></svg>